<?xml version="1.0" encoding="UTF-8" standalone="no"?>
<svg width="147px" height="109px" viewBox="0 0 147 109" version="1.1" xmlns="http://www.w3.org/2000/svg" xmlns:xlink="http://www.w3.org/1999/xlink">
    <!-- Generator: Sketch 3.8.3 (29802) - http://www.bohemiancoding.com/sketch -->
    <title>SantaVitoria-LogoBranco</title>
    <desc>Created with Sketch.</desc>
    <defs></defs>
    <g id="SV_PRODUCT" stroke="none" stroke-width="1" fill="none" fill-rule="evenodd">
        <g id="Generic" transform="translate(-55.000000, -96.000000)" fill="#8C1F04">
            <g id="HEADER">
                <g id="SantaVitoria-LogoBranco" transform="translate(55.000000, 96.000000)">
                    <path d="M52.6328,102.6309 C52.4888,102.6309 52.3968,102.5709 52.3448,102.4469 L49.8588,95.4469 C49.7968,95.3239 49.8378,95.2629 49.9808,95.2629 L50.9528,95.2629 C51.0968,95.2629 51.1788,95.3239 51.2298,95.4569 L52.3038,98.7519 L52.8058,100.5849 L53.0098,101.3529 L53.2048,100.5849 L53.6138,99.1609 L54.8948,95.4569 C54.9448,95.3239 55.0268,95.2629 55.1698,95.2629 L55.8348,95.2629 C55.9588,95.2629 56.0198,95.3239 55.9588,95.4469 L53.3688,102.4469 C53.3168,102.5709 53.2248,102.6309 53.0818,102.6309 L52.6328,102.6309 Z" id="Fill-1"></path>
                    <path d="M58.856,102.6309 C58.713,102.6309 58.651,102.5709 58.651,102.4259 L58.651,95.4669 C58.651,95.3239 58.713,95.2629 58.856,95.2629 L59.737,95.2629 C59.88,95.2629 59.942,95.3239 59.942,95.4669 L59.942,102.4259 C59.942,102.5709 59.88,102.6309 59.737,102.6309 L58.856,102.6309 Z" id="Fill-3"></path>
                    <path d="M67.5791,102.6309 C67.4361,102.6309 67.3231,102.5909 67.2411,102.4679 L64.1191,97.4739 L64.0991,97.4739 L64.2011,99.5619 L64.2011,102.4259 C64.2011,102.5709 64.1401,102.6309 63.9971,102.6309 L63.2191,102.6309 C63.0751,102.6309 63.0141,102.5709 63.0141,102.4259 L63.0141,95.4669 C63.0141,95.3239 63.0751,95.2629 63.2191,95.2629 L63.9351,95.2629 C64.0781,95.2629 64.1911,95.3049 64.2731,95.4259 L67.3951,100.4199 L67.4151,100.4199 L67.3121,98.3339 L67.3121,95.4669 C67.3121,95.3239 67.3741,95.2629 67.5181,95.2629 L68.2951,95.2629 C68.4381,95.2629 68.5001,95.3239 68.5001,95.4669 L68.5001,102.4259 C68.5001,102.5709 68.4381,102.6309 68.2951,102.6309 L67.5791,102.6309 Z" id="Fill-5"></path>
                    <path d="M75.6978,102.6309 C75.5548,102.6309 75.4928,102.5709 75.4928,102.4259 L75.4928,99.3159 L72.8628,99.3159 L72.8628,102.4259 C72.8628,102.5709 72.8018,102.6309 72.6578,102.6309 L71.7778,102.6309 C71.6348,102.6309 71.5728,102.5709 71.5728,102.4259 L71.5728,95.4669 C71.5728,95.3239 71.6348,95.2629 71.7778,95.2629 L72.6578,95.2629 C72.8018,95.2629 72.8628,95.3239 72.8628,95.4669 L72.8628,98.3949 L75.4928,98.3949 L75.4928,95.4669 C75.4928,95.3239 75.5548,95.2629 75.6978,95.2629 L76.5768,95.2629 C76.7208,95.2629 76.7828,95.3239 76.7828,95.4669 L76.7828,102.4259 C76.7828,102.5709 76.7208,102.6309 76.5768,102.6309 L75.6978,102.6309 Z" id="Fill-7"></path>
                    <path d="M79.7529,98.9482 C79.7529,96.3892 81.3189,95.1402 83.3659,95.1402 C85.4129,95.1402 86.9779,96.3892 86.9779,98.9482 C86.9779,101.5062 85.4019,102.7542 83.3659,102.7542 C81.3289,102.7542 79.7529,101.5062 79.7529,98.9482 M85.6279,98.9482 C85.6279,96.8712 84.6039,96.1132 83.3659,96.1132 C82.1269,96.1132 81.1039,96.8712 81.1039,98.9482 C81.1039,101.0252 82.1369,101.7822 83.3659,101.7822 C84.5929,101.7822 85.6279,101.0252 85.6279,98.9482" id="Fill-9"></path>
                    <path d="M91.5771,99.3662 C90.5841,98.9772 89.8991,98.3432 89.8991,97.2892 C89.8991,95.9472 91.0241,95.1402 92.3861,95.1402 C93.2861,95.1402 94.2991,95.4872 94.4931,95.6402 C94.5661,95.6922 94.5661,95.7432 94.5041,95.9082 L94.3401,96.3372 C94.3101,96.4192 94.1771,96.3882 94.0741,96.3572 C93.8091,96.2862 93.0301,96.1122 92.4471,96.1122 C91.3521,96.1122 91.0871,96.7262 91.0871,97.1662 C91.0871,97.5352 91.2701,97.8622 91.9661,98.1292 L92.9481,98.4972 C94.1251,98.9372 94.7091,99.8062 94.7091,100.7182 C94.7091,101.9662 93.6241,102.7542 92.0581,102.7542 C91.1991,102.7542 90.1541,102.4472 89.9091,102.2532 C89.8371,102.1902 89.8371,102.1392 89.8991,101.9862 L90.0621,101.5572 C90.0931,101.4742 90.2261,101.5052 90.3291,101.5362 C90.5941,101.6082 91.4551,101.7812 92.0481,101.7812 C92.9381,101.7812 93.5221,101.3922 93.5221,100.8302 C93.5221,100.3402 93.0811,99.9602 92.5701,99.7552 L91.5771,99.3662 Z" id="Fill-11"></path>
                    <path d="M4.564,71.8203 C1.935,70.7903 0.118,69.1093 0.118,66.3163 C0.118,62.7673 3.101,60.6263 6.706,60.6263 C9.092,60.6263 11.774,61.5463 12.289,61.9543 C12.479,62.0893 12.479,62.2253 12.317,62.6573 L11.883,63.7973 C11.801,64.0133 11.449,63.9323 11.178,63.8503 C10.473,63.6613 8.414,63.2003 6.869,63.2003 C3.968,63.2003 3.264,64.8263 3.264,65.9923 C3.264,66.9663 3.751,67.8353 5.594,68.5403 L8.196,69.5163 C11.314,70.6823 12.859,72.9853 12.859,75.3973 C12.859,78.7043 9.985,80.7933 5.838,80.7933 C3.562,80.7933 0.797,79.9793 0.147,79.4643 C-0.044,79.3003 -0.044,79.1653 0.118,78.7583 L0.553,77.6203 C0.634,77.4033 0.987,77.4853 1.257,77.5663 C1.963,77.7553 4.239,78.2163 5.811,78.2163 C8.17,78.2163 9.715,77.1863 9.715,75.6953 C9.715,74.3943 8.549,73.3913 7.194,72.8503 L4.564,71.8203 Z" id="Fill-13"></path>
                    <path d="M24.8921,80.4668 C24.5121,80.4668 24.4321,80.3048 24.3501,79.9238 L24.0791,78.8138 L24.0241,78.8138 C23.3201,80.1138 21.9381,80.7918 20.1211,80.7918 C17.3831,80.7918 15.0261,79.2198 15.0261,75.8858 C15.0261,72.3908 17.6011,71.4668 20.6911,71.4668 L23.4831,71.4668 C23.3471,70.3278 22.7781,68.2948 20.5291,68.2948 C19.6611,68.2948 18.6861,68.5928 17.4651,68.9738 C16.9511,69.1358 16.8421,69.0288 16.7611,68.9198 L16.1911,68.0518 C16.0281,67.8088 16.0021,67.5918 16.2181,67.3478 C16.7611,66.7508 18.7401,66.0198 20.9071,66.0198 C25.5971,66.0198 26.7891,69.3798 26.7891,73.2558 L26.7891,79.9238 C26.7891,80.3048 26.6261,80.4668 26.2481,80.4668 L24.8921,80.4668 Z M23.5371,73.7438 L20.6911,73.7438 C19.2541,73.7438 18.3051,74.5028 18.3051,75.8048 C18.3051,76.8878 18.9561,78.5148 20.8811,78.5148 C22.5341,78.5148 23.5371,77.2948 23.5371,74.5308 L23.5371,73.7438 Z" id="Fill-16"></path>
                    <path d="M38.3081,80.4668 C37.9551,80.4668 37.7921,80.3048 37.7921,79.9238 L37.7921,72.2798 C37.7921,70.1938 37.1961,68.3218 35.3261,68.3218 C33.4011,68.3218 32.4801,69.7578 32.4801,72.5518 L32.4801,79.9238 C32.4801,80.3048 32.3171,80.4668 31.9381,80.4668 L29.7701,80.4668 C29.3911,80.4668 29.2281,80.3048 29.2281,79.9238 L29.2281,66.9138 C29.2281,66.5338 29.3911,66.3708 29.7701,66.3708 L31.1251,66.3708 C31.5041,66.3708 31.5861,66.5338 31.6671,66.9138 L31.9381,68.0258 L31.9921,68.0258 C32.6431,66.7508 34.2151,66.0458 35.5971,66.0458 C38.6061,66.0458 41.0461,67.9708 41.0461,71.3598 L41.0461,79.9238 C41.0461,80.3048 40.8831,80.4668 40.5301,80.4668 L38.3081,80.4668 Z" id="Fill-18"></path>
                    <path d="M48.3628,80.4668 C45.9228,80.4668 44.6218,79.0838 44.6218,76.2378 L44.6218,68.5138 L43.2128,68.5138 C42.8338,68.5138 42.6718,68.3508 42.6718,67.9708 L42.6718,66.9138 C42.6718,66.5338 42.8338,66.3708 43.2128,66.3708 L44.6218,66.3708 L44.6218,64.2848 C44.6218,63.9048 44.8128,63.8768 45.1648,63.7418 L47.3328,62.9298 C47.6848,62.7938 47.8758,63.0918 47.8758,63.4708 L47.8758,66.3708 L49.5828,66.3708 C49.9618,66.3708 50.1238,66.5338 50.1238,66.9138 L50.1238,67.9708 C50.1238,68.3508 49.9618,68.5138 49.5828,68.5138 L47.8758,68.5138 L47.8758,76.3208 C47.8758,77.6488 48.5528,78.1888 49.1758,78.1888 L49.3668,78.1888 C49.7448,78.1888 49.9078,78.3518 49.9078,78.7318 L49.9078,79.9238 C49.9078,80.3048 49.7448,80.4668 49.3668,80.4668 L48.3628,80.4668 Z" id="Fill-20"></path>
                    <path d="M61.7251,80.4668 C61.3461,80.4668 61.2651,80.3048 61.1831,79.9238 L60.9121,78.8138 L60.8581,78.8138 C60.1521,80.1138 58.7711,80.7918 56.9551,80.7918 C54.2171,80.7918 51.8601,79.2198 51.8601,75.8858 C51.8601,72.3908 54.4341,71.4668 57.5231,71.4668 L60.3171,71.4668 C60.1811,70.3278 59.6111,68.2948 57.3611,68.2948 C56.4941,68.2948 55.5181,68.5928 54.2981,68.9738 C53.7841,69.1358 53.6751,69.0288 53.5931,68.9198 L53.0251,68.0518 C52.8621,67.8088 52.8351,67.5918 53.0521,67.3478 C53.5931,66.7508 55.5731,66.0198 57.7411,66.0198 C62.4301,66.0198 63.6231,69.3798 63.6231,73.2558 L63.6231,79.9238 C63.6231,80.3048 63.4601,80.4668 63.0811,80.4668 L61.7251,80.4668 Z M60.3701,73.7438 L57.5231,73.7438 C56.0881,73.7438 55.1391,74.5028 55.1391,75.8048 C55.1391,76.8878 55.7891,78.5148 57.7141,78.5148 C59.3681,78.5148 60.3701,77.2948 60.3701,74.5308 L60.3701,73.7438 Z" id="Fill-22"></path>
                    <path d="M80.5352,80.4668 C80.1542,80.4668 79.9102,80.3048 79.7752,79.9798 L73.1902,61.4388 C73.0272,61.1138 73.1342,60.9508 73.5142,60.9508 L76.0892,60.9508 C76.4682,60.9508 76.6852,61.1138 76.8212,61.4658 L79.6672,70.1938 L80.9952,75.0438 L81.5382,77.0778 L82.0522,75.0438 L83.1362,71.2768 L86.5252,61.4658 C86.6612,61.1138 86.8772,60.9508 87.2572,60.9508 L89.0192,60.9508 C89.3442,60.9508 89.5062,61.1138 89.3442,61.4388 L82.4862,79.9798 C82.3512,80.3048 82.1072,80.4668 81.7272,80.4668 L80.5352,80.4668 Z" id="Fill-24"></path>
                    <path d="M91.8071,63.6611 C91.4281,63.6611 91.2651,63.4981 91.2651,63.1201 L91.2651,60.9521 C91.2651,60.5711 91.4281,60.4081 91.8071,60.4081 L93.9761,60.4081 C94.3561,60.4081 94.5181,60.5711 94.5181,60.9521 L94.5181,63.1201 C94.5181,63.4981 94.3561,63.6611 93.9761,63.6611 L91.8071,63.6611 Z M91.8071,80.4681 C91.4281,80.4681 91.2651,80.3061 91.2651,79.9251 L91.2651,66.9151 C91.2651,66.5351 91.4281,66.3721 91.8071,66.3721 L93.9761,66.3721 C94.3561,66.3721 94.5181,66.5351 94.5181,66.9151 L94.5181,79.9251 C94.5181,80.3061 94.3561,80.4681 93.9761,80.4681 L91.8071,80.4681 Z" id="Fill-26"></path>
                    <path d="M101.8359,80.4668 C99.3959,80.4668 98.0949,79.0838 98.0949,76.2378 L98.0949,68.5138 L96.6849,68.5138 C96.3059,68.5138 96.1439,68.3508 96.1439,67.9708 L96.1439,66.9138 C96.1439,66.5338 96.3059,66.3708 96.6849,66.3708 L98.0949,66.3708 L98.0949,64.2848 C98.0949,63.9048 98.2849,63.8768 98.6379,63.7418 L100.8059,62.9298 C101.1589,62.7938 101.3479,63.0918 101.3479,63.4708 L101.3479,66.3708 L103.0559,66.3708 C103.4349,66.3708 103.5969,66.5338 103.5969,66.9138 L103.5969,67.9708 C103.5969,68.3508 103.4349,68.5138 103.0559,68.5138 L101.3479,68.5138 L101.3479,76.3208 C101.3479,77.6488 102.0259,78.1888 102.6489,78.1888 L102.8399,78.1888 C103.2179,78.1888 103.3809,78.3518 103.3809,78.7318 L103.3809,79.9238 C103.3809,80.3048 103.2179,80.4668 102.8399,80.4668 L101.8359,80.4668 Z" id="Fill-28"></path>
                    <path d="M105.0879,73.4463 C105.0879,69.4093 106.4429,66.0193 111.6469,66.0193 C116.8509,66.0193 118.2069,69.4093 118.2069,73.4193 C118.2069,77.4583 116.8509,80.7933 111.6469,80.7933 C106.4429,80.7933 105.0879,77.4863 105.0879,73.4463 L105.0879,73.4463 Z M114.9539,73.4193 C114.9539,70.7373 114.3579,68.4593 111.6469,68.4593 C108.9369,68.4593 108.3419,70.7373 108.3419,73.4193 C108.3419,76.1303 108.9369,78.3523 111.6469,78.3523 C114.3579,78.3523 114.9539,76.1303 114.9539,73.4193 L114.9539,73.4193 Z M111.5659,60.8693 C111.7839,60.5443 112.0279,60.4083 112.4069,60.4083 L114.8729,60.4083 C115.2529,60.4083 115.3069,60.5173 115.0089,60.7893 L111.9999,63.6073 C111.7019,63.8783 111.4309,63.9863 111.0519,63.9863 L110.2109,63.9863 C109.8309,63.9863 109.7499,63.8513 109.9399,63.5253 L111.5659,60.8693 Z" id="Fill-30"></path>
                    <path d="M121.187,80.4668 C120.808,80.4668 120.645,80.3048 120.645,79.9238 L120.645,66.9138 C120.645,66.5338 120.808,66.3708 121.187,66.3708 L122.543,66.3708 C122.921,66.3708 122.921,66.5618 123.084,66.9138 L123.356,67.9428 L123.409,67.9428 C124.576,66.1538 125.931,66.1818 127.095,66.1538 C127.475,66.1538 127.584,66.1818 127.584,66.5618 L127.584,68.5928 C127.584,69.2978 126.987,68.9998 126.473,68.9998 C124.792,68.9998 123.897,69.9208 123.897,71.6288 L123.897,79.9238 C123.897,80.3048 123.735,80.4668 123.356,80.4668 L121.187,80.4668 Z" id="Fill-32"></path>
                    <path d="M129.9961,63.6611 C129.6161,63.6611 129.4541,63.4981 129.4541,63.1201 L129.4541,60.9521 C129.4541,60.5711 129.6161,60.4081 129.9961,60.4081 L132.1651,60.4081 C132.5441,60.4081 132.7061,60.5711 132.7061,60.9521 L132.7061,63.1201 C132.7061,63.4981 132.5441,63.6611 132.1651,63.6611 L129.9961,63.6611 Z M129.9961,80.4681 C129.6161,80.4681 129.4541,80.3061 129.4541,79.9251 L129.4541,66.9151 C129.4541,66.5351 129.6161,66.3721 129.9961,66.3721 L132.1651,66.3721 C132.5441,66.3721 132.7061,66.5351 132.7061,66.9151 L132.7061,79.9251 C132.7061,80.3061 132.5441,80.4681 132.1651,80.4681 L129.9961,80.4681 Z" id="Fill-34"></path>
                    <path d="M145.0107,80.4668 C144.6317,80.4668 144.5507,80.3048 144.4687,79.9238 L144.1977,78.8138 L144.1437,78.8138 C143.4387,80.1138 142.0567,80.7918 140.2397,80.7918 C137.5027,80.7918 135.1447,79.2198 135.1447,75.8858 C135.1447,72.3908 137.7197,71.4668 140.8087,71.4668 L143.6007,71.4668 C143.4657,70.3278 142.8967,68.2948 140.6467,68.2948 C139.7797,68.2948 138.8037,68.5928 137.5837,68.9738 C137.0697,69.1358 136.9607,69.0288 136.8787,68.9198 L136.3107,68.0518 C136.1477,67.8088 136.1207,67.5918 136.3367,67.3478 C136.8787,66.7508 138.8587,66.0198 141.0267,66.0198 C145.7157,66.0198 146.9077,69.3798 146.9077,73.2558 L146.9077,79.9238 C146.9077,80.3048 146.7447,80.4668 146.3667,80.4668 L145.0107,80.4668 Z M143.6557,73.7438 L140.8087,73.7438 C139.3727,73.7438 138.4237,74.5028 138.4237,75.8048 C138.4237,76.8878 139.0747,78.5148 140.9997,78.5148 C142.6527,78.5148 143.6557,77.2948 143.6557,74.5308 L143.6557,73.7438 Z" id="Fill-36"></path>
                    <path d="M16.0386,109 L73.5626,108.624 L130.7206,109 C132.6146,109.011 132.7366,106.735 130.7206,106.763 L73.5626,107.519 L16.0386,106.763 C14.1896,106.737 14.3386,109.011 16.0386,109" id="Fill-38"></path>
                    <path d="M16.0386,91.1211 L73.5626,90.7451 L130.7206,91.1211 C132.6146,91.1341 132.7366,88.8551 130.7206,88.8811 L73.5626,89.6361 L16.0386,88.8811 C14.1896,88.8571 14.3386,91.1321 16.0386,91.1211" id="Fill-41"></path>
                    <path d="M61.5781,0.9663 C56.3221,1.8813 45.9371,7.6173 45.0261,13.4713 C44.7981,14.9953 45.5171,16.6023 47.4941,18.6753 C49.4231,20.6933 54.5491,24.0373 57.1911,26.0793 C61.5491,29.4313 65.0641,33.0963 64.7451,37.8053 C64.2391,41.7543 61.8681,44.8153 58.6291,47.1603 C53.0491,51.2033 44.9081,53.1233 39.3501,53.8113 C36.7871,54.0543 33.9511,54.1953 31.7021,53.8963 C28.4691,55.6103 57.5141,60.4883 71.3781,41.9263 C71.4801,41.7873 71.5681,41.6483 71.6571,41.5073 C74.4191,37.2083 73.1031,33.4713 70.7061,30.1563 C67.8421,26.1893 64.1031,23.2033 60.7841,20.0513 C58.7541,18.1253 54.1401,13.6803 54.8921,9.8073 C55.4621,6.9053 60.0051,3.0763 64.7691,2.2393 C65.9651,2.0273 67.1391,1.9313 68.3051,1.9993 C68.3791,2.0013 68.4601,2.0103 68.5311,2.0103 C69.0721,2.0233 69.6551,2.2943 69.5981,2.0553 C68.4711,1.2263 64.6981,0.4233 61.5781,0.9663" id="Fill-43"></path>
                    <path d="M112.7568,13.6113 C111.1978,12.7973 109.3988,14.6973 107.4778,17.3993 C105.6038,20.0263 102.8208,28.1933 101.0498,32.6463 C98.1318,39.9843 97.4838,44.0543 94.4588,44.4183 C91.8548,44.4383 87.7838,42.0723 84.7838,38.5693 C79.4938,32.3953 76.0978,24.4093 74.1438,16.5033 C73.4048,13.5173 72.7808,10.0953 72.7238,7.3503 C64.5668,19.8733 82.1258,46.2073 92.5518,53.0223 C92.6978,53.1193 92.8458,53.2093 92.9848,53.2923 C97.4528,55.9033 100.7288,54.1793 102.7578,50.7803 C105.1878,46.7133 105.7728,42.0633 108.0178,36.4233 C116.3028,15.6233 114.4808,24.3523 118.4838,25.7033 C119.7558,26.1293 117.5168,16.0963 112.7568,13.6113" id="Fill-45"></path>
                </g>
            </g>
        </g>
    </g>
</svg>